<?xml version="1.0" encoding="utf-8"?>
<!-- Generator: Adobe Illustrator 16.0.0, SVG Export Plug-In . SVG Version: 6.00 Build 0)  -->
<!DOCTYPE svg PUBLIC "-//W3C//DTD SVG 1.1//EN" "http://www.w3.org/Graphics/SVG/1.1/DTD/svg11.dtd">
<svg version="1.1"
	 id="svg3262" xmlns:dc="http://purl.org/dc/elements/1.1/" xmlns:rdf="http://www.w3.org/1999/02/22-rdf-syntax-ns#" xmlns:cc="http://creativecommons.org/ns#" xmlns:svg="http://www.w3.org/2000/svg"
	 xmlns="http://www.w3.org/2000/svg" xmlns:xlink="http://www.w3.org/1999/xlink" x="0px" y="0px" width="300px" height="300px"
	 viewBox="0 -109.306 300 300" enable-background="new 0 -109.306 300 300" xml:space="preserve">
<path d="M0-109.306v300h300v-300H0z M106.001,55.207c-1.897,0.188-3.794,0.388-5.687,0.601l-6.153-17.46v18.195
	c-1.653,0.209-3.305,0.425-4.956,0.651h-0.031v-33h4.985h0.214l6.641,18.851V24.195h4.987V55.207z M124.042,28.979h-7.19v8.071
	h6.244v4.781h-6.244v7.651c2.387-0.179,4.781-0.339,7.181-0.479v3.404v1.379v0.008c-4.15,0.242-8.283,0.54-12.4,0.896v-0.005V49.9
	V24.195h12.41V28.979z M143.969,28.982h-4.858v24.186c-1.737,0.043-3.471,0.094-5.2,0.155V28.982h-4.858v-4.784h14.917V28.982z
	 M161.442,28.976h-7.19v8.074h6.244v4.778h-6.244V53.05c-1.399-0.01-2.802-0.021-4.204-0.021c-0.338,0-0.677,0.005-1.013,0.003
	v-28.84h12.407V28.976z M178.933,52.421v1.545v0.005c-4.122-0.265-8.26-0.479-12.409-0.631v-0.005v-4.784V24.195h5.219v24.583
	c2.399,0.114,4.796,0.249,7.19,0.404V52.421z M189.088,54.74c-1.73-0.152-3.463-0.298-5.198-0.43V24.195h5.198V54.74z
	 M210.822,57.188c-1.813-0.252-3.632-0.489-5.451-0.718l-3.544-10.059l-3.73,9.211c-1.689-0.184-3.382-0.358-5.076-0.524
	l6.349-15.669l-5.369-15.231h5.198l2.949,8.369l3.359-8.295l0.053-0.077h5.268l-6.219,15.354L210.822,57.188z"/>
</svg>
